<?xml version="1.0" standalone="no"?><svg xmlns="http://www.w3.org/2000/svg" viewBox="0 0 1440 320"><path fill="#f7f8fc" fill-opacity="1" d="M0,224L18.5,240C36.9,256,74,288,111,298.7C147.7,309,185,299,222,266.7C258.5,235,295,181,332,181.3C369.2,181,406,235,443,224C480,213,517,139,554,106.7C590.8,75,628,85,665,117.3C701.5,149,738,203,775,197.3C812.3,192,849,128,886,112C923.1,96,960,128,997,149.3C1033.8,171,1071,181,1108,160C1144.6,139,1182,85,1218,80C1255.4,75,1292,117,1329,128C1366.2,139,1403,117,1422,106.7L1440,96L1440,0L1421.5,0C1403.1,0,1366,0,1329,0C1292.3,0,1255,0,1218,0C1181.5,0,1145,0,1108,0C1070.8,0,1034,0,997,0C960,0,923,0,886,0C849.2,0,812,0,775,0C738.5,0,702,0,665,0C627.7,0,591,0,554,0C516.9,0,480,0,443,0C406.2,0,369,0,332,0C295.4,0,258,0,222,0C184.6,0,148,0,111,0C73.8,0,37,0,18,0L0,0Z"></path></svg>