<svg width="451" height="457" viewBox="0 0 451 457" fill="none" xmlns="http://www.w3.org/2000/svg">
<path d="M12.3463 47.161L17.6603 -4H398.227C410.899 9.00496 433.3 44.2901 421.527 81.3911C406.811 110.836 425.615 126.663 444.419 173.039C459.461 210.14 445.236 273.889 436.243 301.126C435.834 328.608 418.829 395.277 354.08 442.095C348.766 409.705 359.394 433.629 297.261 427.004C284.507 411.987 273.143 425.164 269.055 433.629L214.28 454.241C202.698 458.78 171.113 461.013 137.431 433.629C96.5534 426.268 122.715 428.844 58.5376 331.307C29.106 297.077 54.4498 310.327 67.9393 277.202C78.7309 250.701 108.953 243.585 122.715 243.34C139.202 239.536 171.113 215.293 166.862 148.747C167.68 98.6901 77.7498 126.663 27.0621 104.211C-13.4881 86.2495 0.355628 58.6937 12.3463 47.161Z" fill="url(#paint0_linear)" fill-opacity="0.75"/>
<defs>
<linearGradient id="paint0_linear" x1="19.7042" y1="-4.36806" x2="317.711" y2="473.258" gradientUnits="userSpaceOnUse">
<stop stop-color="#FED402"/>
<stop offset="1" stop-color="#2CBFAE"/>
</linearGradient>
</defs>
</svg>
