<svg width="48" height="48" viewBox="0 0 48 48" fill="none" xmlns="http://www.w3.org/2000/svg">
<g clip-path="url(#clip0)">
<path d="M24 48C37.2548 48 48 37.2548 48 24C48 10.7452 37.2548 0 24 0C10.7452 0 0 10.7452 0 24C0 37.2548 10.7452 48 24 48Z" fill="#3F3B41"/>
<path d="M8.625 15.087V36.8051C8.625 37.1558 8.76431 37.4921 9.01228 37.7401C9.26025 37.9881 9.59657 38.1274 9.94725 38.1274H38.0531C38.4037 38.1273 38.74 37.9879 38.9879 37.74C39.2357 37.492 39.375 37.1557 39.375 36.8051V15.087H8.625Z" fill="#EEEFEE"/>
<path d="M38.0528 9.873H9.94725C9.59663 9.873 9.26037 10.0123 9.01241 10.2601C8.76445 10.508 8.6251 10.8443 8.625 11.1949V16.3699H39.375V11.1949C39.3749 10.8443 39.2355 10.508 38.9876 10.2601C38.7396 10.0123 38.4034 9.873 38.0528 9.873Z" fill="#62667C"/>
<path d="M27.3679 14.2826C28.0253 14.2826 28.5581 13.7497 28.5581 13.0924C28.5581 12.435 28.0253 11.9021 27.3679 11.9021C26.7105 11.9021 26.1776 12.435 26.1776 13.0924C26.1776 13.7497 26.7105 14.2826 27.3679 14.2826Z" fill="#2CBFAE"/>
<path d="M31.5769 14.2826C32.2342 14.2826 32.7671 13.7497 32.7671 13.0924C32.7671 12.435 32.2342 11.9021 31.5769 11.9021C30.9195 11.9021 30.3866 12.435 30.3866 13.0924C30.3866 13.7497 30.9195 14.2826 31.5769 14.2826Z" fill="#F6C863"/>
<path d="M35.7855 14.3389C36.4428 14.3389 36.9757 13.806 36.9757 13.1486C36.9757 12.4913 36.4428 11.9584 35.7855 11.9584C35.1281 11.9584 34.5952 12.4913 34.5952 13.1486C34.5952 13.806 35.1281 14.3389 35.7855 14.3389Z" fill="#EF5261"/>
<path d="M20.2856 25.71L17.1356 27.5588L20.2856 29.4075V31.4288L14.7169 28.3275V26.79L20.2856 23.6888V25.71Z" fill="#62667C"/>
<path d="M26.3374 23.0471L23.5755 32.5965H21.7407L24.5025 23.0471H26.3374Z" fill="#62667C"/>
<path d="M33.2831 26.79V28.3275L27.7144 31.4288V29.4075L30.8644 27.5588L27.7144 25.71V23.6888L33.2831 26.79Z" fill="#62667C"/>
<g clip-path="url(#clip1)">
<path d="M38.5857 28.7137L25.7108 41.5886C25.3065 41.9929 24.6658 42.0077 24.2798 41.6216C23.8937 41.2356 23.9085 40.5949 24.3128 40.1906L37.1877 27.3157L39.5898 25.028L41.0751 26.496L38.5857 28.7137Z" fill="#C9BFC8"/>
<path d="M46.0249 27.8427L44.0487 24.6773C44.0091 24.6137 44.0001 24.5357 44.0243 24.4648L45.2031 21.015C45.27 20.8191 45.0827 20.6317 44.8867 20.6987L41.4369 21.8774C41.366 21.9016 41.2879 21.8926 41.2244 21.853L38.5562 20.1873L38.2945 20.2854L38.583 24.0363L37.6325 24.6813L35.3922 26.2937L38.7867 27.2781L39.6184 29.8749L40.1615 30.2992L40.1774 30.4963L41.765 28.0389C41.8147 27.962 41.9025 27.9185 41.9937 27.9257L45.794 28.223C45.998 28.239 46.1332 28.0162 46.0249 27.8427Z" fill="#FEE45A"/>
<path d="M39.2947 27.1018C39.2706 27.022 39.208 26.9594 39.1282 26.9353L36.1304 26.0303L38.7893 24.3125C38.8662 24.2629 38.9097 24.175 38.9025 24.0838L38.6052 20.2835C38.6034 20.2614 38.605 20.2402 38.6085 20.2199L38.059 19.8769C37.8856 19.7685 37.6627 19.9038 37.6787 20.1076L37.976 23.9079C37.9831 23.9992 37.9397 24.087 37.8628 24.1367L34.8468 26.0851C34.8 26.1153 34.7688 26.1563 34.751 26.2013L34.7506 26.2014C34.7504 26.2019 34.7503 26.2025 34.7501 26.203C34.7468 26.2117 34.745 26.2206 34.7426 26.2296C34.7407 26.237 34.7379 26.2441 34.7367 26.2517C34.7367 26.2518 34.7366 26.2519 34.7366 26.2521H34.7367C34.7174 26.3677 34.7794 26.4935 34.91 26.5329L38.207 27.5283C38.2868 27.5524 38.3494 27.6149 38.3735 27.6948L39.3689 30.9918C39.4302 31.1951 39.7015 31.2333 39.8167 31.055L40.2743 30.3466L39.2947 27.1018Z" fill="#FED402"/>
<path d="M32.4555 21.6049C31.9177 22.0519 31.764 22.7013 31.9945 23.5533C32.0289 23.6806 32.1634 23.7531 32.2885 23.7113L33.8143 23.2006C33.973 23.1475 34.0229 22.9476 33.9076 22.8262L32.7666 21.6246C32.6841 21.5377 32.5476 21.5283 32.4555 21.6049Z" fill="#3F3F3F"/>
<path d="M41.9151 16.6074C41.3351 16.2168 40.6686 16.2517 39.9157 16.7122C39.8032 16.781 39.7713 16.9304 39.8466 17.0387L40.7652 18.3598C40.8608 18.4972 41.0667 18.4889 41.1508 18.3441L41.9836 16.9116C42.0438 16.808 42.0145 16.6744 41.9151 16.6074Z" fill="#3F3F3F"/>
<path d="M36.5608 18.5595C36.4478 18.5595 36.3359 18.5104 36.2594 18.4157L35.5539 17.5431C35.4195 17.3768 35.4453 17.133 35.6116 16.9985C35.7779 16.8641 36.0217 16.8899 36.1561 17.0562L36.8616 17.9288C36.9961 18.0951 36.9703 18.3389 36.804 18.4734C36.7323 18.5313 36.6462 18.5595 36.5608 18.5595Z" fill="#3F3F3F"/>
<path d="M44.3334 33.4828C43.8864 34.0206 43.237 34.1743 42.385 33.9438C42.2577 33.9094 42.1851 33.7749 42.227 33.6498L42.7376 32.124C42.7908 31.9652 42.9907 31.9154 43.1121 32.0307L44.3137 33.1717C44.4006 33.2542 44.41 33.3907 44.3334 33.4828Z" fill="#3F3F3F"/>
<path d="M49.3311 24.0232C49.7217 24.6032 49.6868 25.2697 49.2263 26.0226C49.1575 26.1351 49.0081 26.1669 48.8998 26.0917L47.5787 25.1731C47.4413 25.0775 47.4496 24.8715 47.5944 24.7874L49.0269 23.9547C49.1305 23.8945 49.2641 23.9238 49.3311 24.0232Z" fill="#3F3F3F"/>
<path d="M48.6384 30.4705C48.5529 30.4705 48.4669 30.4423 48.3952 30.3844L47.5226 29.6789C47.3562 29.5444 47.3304 29.3006 47.4649 29.1343C47.5993 28.9679 47.843 28.9421 48.0095 29.0767L48.8821 29.7821C49.0484 29.9166 49.0742 30.1604 48.9397 30.3267C48.8633 30.4214 48.7513 30.4705 48.6384 30.4705Z" fill="#3F3F3F"/>
<path d="M46.7104 19.699C46.607 19.699 46.5038 19.6578 46.4276 19.5763C46.2814 19.4202 46.2896 19.1751 46.4458 19.029L47.4138 18.1233C47.5699 17.9771 47.815 17.9854 47.9612 18.1415C48.1073 18.2977 48.0991 18.5428 47.9429 18.6889L46.9749 19.5945C46.9002 19.6644 46.8052 19.699 46.7104 19.699Z" fill="#3F3F3F"/>
</g>
</g>
<defs>
<clipPath id="clip0">
<rect width="48" height="48" fill="white"/>
</clipPath>
<clipPath id="clip1">
<rect width="25.6" height="25.6" fill="white" transform="translate(24 16.32)"/>
</clipPath>
</defs>
</svg>
