<svg width="15" height="15" viewBox="0 0 15 15" fill="none" xmlns="http://www.w3.org/2000/svg">
<g clip-path="url(#clip0)">
<path d="M14.121 8.01574V6.6218C14.121 6.3791 13.9243 6.18234 13.6816 6.18234C12.7737 6.18234 11.9274 6.25896 11.1277 6.4154C10.6616 5.96525 10.0933 5.63865 9.4779 5.46015C10.1489 4.89539 10.5761 4.0498 10.5761 3.10618C10.5761 1.39381 9.19615 0.000715256 7.49996 0.000715256C5.80376 0.000715256 4.42379 1.39381 4.42379 3.10618C4.42379 4.0498 4.851 4.89539 5.52204 5.46012C4.90666 5.63865 4.33839 5.96525 3.87225 6.41537C3.07259 6.25896 2.22621 6.18231 1.31836 6.18231C1.07566 6.18231 0.878905 6.37907 0.878905 6.62177V8.01571C0.367411 8.19711 0 8.68558 0 9.25848V10.1374C0 10.7103 0.367411 11.1987 0.878905 11.3802V12.7741C0.878905 13.0168 1.07566 13.2136 1.31836 13.2136C3.61608 13.2136 5.50288 13.758 7.25624 14.9269C7.40316 15.0248 7.59669 15.025 7.74376 14.9269C9.49712 13.758 11.3839 13.2136 13.6816 13.2136C13.9243 13.2136 14.1211 13.0168 14.1211 12.7741V11.3802C14.6326 11.1987 15 10.7103 15 10.1374V9.25848C14.9999 8.68561 14.6325 8.19714 14.121 8.01574ZM5.30269 3.10618C5.30269 1.87844 6.28839 0.87962 7.49996 0.87962C8.71153 0.87962 9.69722 1.87844 9.69722 3.10618C9.69722 4.31775 8.71153 5.30344 7.49996 5.30344C6.28839 5.30344 5.30269 4.31775 5.30269 3.10618ZM1.31833 10.5769C1.07601 10.5769 0.878875 10.3797 0.878875 10.1374V9.25851C0.878875 9.0162 1.07601 8.81906 1.31833 8.81906C1.56064 8.81906 1.75778 9.0162 1.75778 9.25851V10.1374C1.75778 10.3797 1.56064 10.5769 1.31833 10.5769ZM7.0605 13.7727C5.4652 12.8604 3.7533 12.3993 1.75778 12.341V11.3802C2.26927 11.1988 2.63668 10.7103 2.63668 10.1374V9.25851C2.63668 8.68561 2.26927 8.19714 1.75778 8.01574V7.06746C3.82265 7.12673 5.4824 7.61297 7.0605 8.61773V13.7727ZM7.49996 7.85633C6.68884 7.34455 5.84457 6.95487 4.94328 6.68103C5.43852 6.35918 6.02149 6.18234 6.62105 6.18234H8.37886C8.97842 6.18234 9.5614 6.35918 10.0566 6.68103C9.15534 6.95487 8.31104 7.34455 7.49996 7.85633ZM13.2421 12.341C11.2466 12.3993 9.53468 12.8605 7.93941 13.7728V8.61808C9.51754 7.61323 11.1772 7.1267 13.2421 7.06746V8.01574C12.7306 8.19714 12.3632 8.68561 12.3632 9.25851V10.1374C12.3632 10.7103 12.7306 11.1988 13.2421 11.3802V12.341ZM14.121 10.1374C14.121 10.3797 13.9239 10.5769 13.6816 10.5769C13.4393 10.5769 13.2421 10.3797 13.2421 10.1374V9.25851C13.2421 9.0162 13.4393 8.81906 13.6816 8.81906C13.9239 8.81906 14.121 9.0162 14.121 9.25851V10.1374Z" fill="#8C8C8C"/>
</g>
<defs>
<clipPath id="clip0">
<rect width="15" height="15" fill="white"/>
</clipPath>
</defs>
</svg>
