<svg width="576" height="540" viewBox="0 0 576 540" fill="none" xmlns="http://www.w3.org/2000/svg">
<path d="M512.965 525.217L577 518.855L577 63.1869C560.723 48.0143 516.559 21.193 470.122 35.2888C433.268 52.9087 413.459 30.3944 355.413 7.88025C308.976 -10.1311 229.187 6.90137 195.096 17.6691C160.699 18.1585 77.2544 38.5191 18.6559 116.046C59.1957 122.409 29.2515 109.684 37.5438 184.078C56.3395 199.349 39.8472 212.955 29.2515 217.85L3.45349 283.434C-2.22827 297.302 -5.02307 335.119 29.2515 375.449C38.4651 424.393 35.2404 393.069 157.321 469.911C200.164 505.15 183.579 474.805 225.041 458.654C258.209 445.732 267.116 409.547 267.423 393.069C272.183 373.328 302.527 335.119 385.818 340.209C448.47 339.23 413.459 446.907 441.56 507.598C464.041 556.15 498.531 539.574 512.965 525.217Z" fill="#C0C0C0" fill-opacity="0.3"/>
</svg>
